# xmcd
#
# Track frame offsets: 
#        150
#        14512
#        28191
#        46373
#        63123
#        78906
#        89403
#        106473
#        120759
#        137030
#        153640
#
# Disc length: 2256 seconds
#
# Revision: 0
# Processed by: cddbd v1.5.2PL0 Copyright (c) Steve Scherf et al.
# Submitted via: ExactAudioCopyFreeDBPlugin 1.0
#
DISCID=8608ce0b
DTITLE=Lack of Afro - Jack of All Trades
DYEAR=2018
DGENRE=Soul
TTITLE0=Back to the Day (ft Elliott Cole)
TTITLE1=Baby Be Mine (ft Juliette Ashby)
TTITLE2=Only You and Me (ft Wax, Alyssa Marie and Camila Recchio)
TTITLE3=Over and Out (ft Ed Martin)
TTITLE4=Don't Do Me Over (ft Nick Corbin)
TTITLE5=The Messin' Around Intermission
TTITLE6=Back in Business (ft Wax and Herbal T)
TTITLE7=Reach Out (Talk Louder) (ft Elliott Cole)
TTITLE8=Home (ft Nick Corbin)
TTITLE9=Good Love (ft Emma Noble)
TTITLE10=Take It Up a Notch (ft Wax and Herbal T)
EXTD=
EXTT0=
EXTT1=
EXTT2=
EXTT3=
EXTT4=
EXTT5=
EXTT6=
EXTT7=
EXTT8=
EXTT9=
EXTT10=
PLAYORDER=
